# xmcd
#
# Track frame offsets:
#	150
#	16462
#	40783
#	62956
#	76972
#	92736
#	108671
#	123952
#	144449
#	157239
#
# Disc length: 2423 seconds
# Revision: 1
# Processed by: cddbd v1.5.2PL0 Copyright (c) Steve Scherf et al.
# Submitted via: dBpowerAMP V12.0
#
DISCID=8409750a
DTITLE=Brad,Seattle,WA - United We Stand
DYEAR=2012
DGENRE=Blues
TTITLE0=Miles Of Rope
TTITLE1=Bound In Time
TTITLE2=A Reason To Be In My Skin
TTITLE3=Diamond Blues
TTITLE4=The Only Way
TTITLE5=Last Bastion
TTITLE6=Make Pain Go Away
TTITLE7=Needle And Thread
TTITLE8=Tea Bag
TTITLE9=Through The Day
EXTD=
EXTT0=
EXTT1=
EXTT2=
EXTT3=
EXTT4=
EXTT5=
EXTT6=
EXTT7=
EXTT8=
EXTT9=
PLAYORDER=
